<mxfile host="app.diagrams.net" modified="2023-05-16T07:08:06.545Z" agent="Mozilla/5.0 (Windows NT 10.0; Win64; x64) AppleWebKit/537.36 (KHTML, like Gecko) Chrome/113.0.0.0 Safari/537.36 Edg/113.0.1774.42" etag="j8W73jwmPpBPgYDvf0zn" version="21.3.2" type="device">
  <diagram name="Page-1" id="JvA3NnP4D5yAz7VbQoSl">
    <mxGraphModel dx="454" dy="418" grid="1" gridSize="10" guides="1" tooltips="1" connect="1" arrows="1" fold="1" page="1" pageScale="1" pageWidth="1600" pageHeight="900" math="0" shadow="0">
      <root>
        <mxCell id="0" />
        <mxCell id="1" parent="0" />
        <mxCell id="E5Ex_lbN0JhBKBRKAw5k-11" style="edgeStyle=orthogonalEdgeStyle;rounded=0;orthogonalLoop=1;jettySize=auto;html=1;exitX=0.5;exitY=1;exitDx=0;exitDy=0;entryX=0.5;entryY=0;entryDx=0;entryDy=0;" parent="1" source="E5Ex_lbN0JhBKBRKAw5k-1" target="E5Ex_lbN0JhBKBRKAw5k-2" edge="1">
          <mxGeometry relative="1" as="geometry" />
        </mxCell>
        <mxCell id="E5Ex_lbN0JhBKBRKAw5k-1" value="START" style="rounded=1;whiteSpace=wrap;html=1;arcSize=50;" parent="1" vertex="1">
          <mxGeometry x="240" width="80" height="40" as="geometry" />
        </mxCell>
        <mxCell id="E5Ex_lbN0JhBKBRKAw5k-5" style="edgeStyle=orthogonalEdgeStyle;rounded=0;orthogonalLoop=1;jettySize=auto;html=1;exitX=1;exitY=0.5;exitDx=0;exitDy=0;entryX=0;entryY=0.5;entryDx=0;entryDy=0;" parent="1" source="E5Ex_lbN0JhBKBRKAw5k-2" target="E5Ex_lbN0JhBKBRKAw5k-3" edge="1">
          <mxGeometry relative="1" as="geometry" />
        </mxCell>
        <mxCell id="fYrPf92ZrXlY5Qa0vSuc-16" style="edgeStyle=orthogonalEdgeStyle;rounded=0;orthogonalLoop=1;jettySize=auto;html=1;exitX=0.5;exitY=1;exitDx=0;exitDy=0;entryX=0.5;entryY=0;entryDx=0;entryDy=0;" edge="1" parent="1" source="E5Ex_lbN0JhBKBRKAw5k-2" target="fYrPf92ZrXlY5Qa0vSuc-14">
          <mxGeometry relative="1" as="geometry" />
        </mxCell>
        <mxCell id="E5Ex_lbN0JhBKBRKAw5k-2" value="While&lt;br&gt;ON" style="rhombus;whiteSpace=wrap;html=1;" parent="1" vertex="1">
          <mxGeometry x="240" y="80" width="80" height="80" as="geometry" />
        </mxCell>
        <mxCell id="E5Ex_lbN0JhBKBRKAw5k-3" value="END" style="rounded=1;whiteSpace=wrap;html=1;arcSize=50;" parent="1" vertex="1">
          <mxGeometry x="360" y="100" width="80" height="40" as="geometry" />
        </mxCell>
        <mxCell id="E5Ex_lbN0JhBKBRKAw5k-9" style="edgeStyle=orthogonalEdgeStyle;rounded=0;orthogonalLoop=1;jettySize=auto;html=1;exitX=0.5;exitY=1;exitDx=0;exitDy=0;" parent="1" target="E5Ex_lbN0JhBKBRKAw5k-7" edge="1">
          <mxGeometry relative="1" as="geometry">
            <mxPoint x="280" y="480" as="sourcePoint" />
          </mxGeometry>
        </mxCell>
        <mxCell id="E5Ex_lbN0JhBKBRKAw5k-6" value="Connect&lt;br&gt;Database" style="rounded=0;whiteSpace=wrap;html=1;" parent="1" vertex="1">
          <mxGeometry x="240" y="440" width="80" height="40" as="geometry" />
        </mxCell>
        <mxCell id="E5Ex_lbN0JhBKBRKAw5k-8" style="edgeStyle=orthogonalEdgeStyle;rounded=0;orthogonalLoop=1;jettySize=auto;html=1;exitX=1;exitY=0.5;exitDx=0;exitDy=0;entryX=1;entryY=0.5;entryDx=0;entryDy=0;" parent="1" source="E5Ex_lbN0JhBKBRKAw5k-7" edge="1">
          <mxGeometry relative="1" as="geometry">
            <Array as="points">
              <mxPoint x="400" y="560" />
              <mxPoint x="400" y="460" />
            </Array>
            <mxPoint x="320" y="460" as="targetPoint" />
          </mxGeometry>
        </mxCell>
        <mxCell id="E5Ex_lbN0JhBKBRKAw5k-13" style="edgeStyle=orthogonalEdgeStyle;rounded=0;orthogonalLoop=1;jettySize=auto;html=1;exitX=0;exitY=0.5;exitDx=0;exitDy=0;entryX=0;entryY=0.5;entryDx=0;entryDy=0;" parent="1" source="E5Ex_lbN0JhBKBRKAw5k-7" target="E5Ex_lbN0JhBKBRKAw5k-12" edge="1">
          <mxGeometry relative="1" as="geometry">
            <Array as="points">
              <mxPoint x="160" y="560" />
              <mxPoint x="160" y="680" />
            </Array>
          </mxGeometry>
        </mxCell>
        <mxCell id="E5Ex_lbN0JhBKBRKAw5k-7" value="Connected?" style="rhombus;whiteSpace=wrap;html=1;" parent="1" vertex="1">
          <mxGeometry x="240" y="520" width="80" height="80" as="geometry" />
        </mxCell>
        <mxCell id="E5Ex_lbN0JhBKBRKAw5k-19" style="edgeStyle=orthogonalEdgeStyle;rounded=0;orthogonalLoop=1;jettySize=auto;html=1;exitX=1;exitY=0.5;exitDx=0;exitDy=0;entryX=0;entryY=0.5;entryDx=0;entryDy=0;" parent="1" source="E5Ex_lbN0JhBKBRKAw5k-12" target="E5Ex_lbN0JhBKBRKAw5k-15" edge="1">
          <mxGeometry relative="1" as="geometry" />
        </mxCell>
        <mxCell id="E5Ex_lbN0JhBKBRKAw5k-12" value="Get Data&lt;br&gt;From&lt;br&gt;Ultrasonic&lt;br&gt;Distance&lt;br&gt;Sensor" style="shape=parallelogram;perimeter=parallelogramPerimeter;whiteSpace=wrap;html=1;fixedSize=1;" parent="1" vertex="1">
          <mxGeometry x="220" y="640" width="120" height="80" as="geometry" />
        </mxCell>
        <mxCell id="E5Ex_lbN0JhBKBRKAw5k-20" style="edgeStyle=orthogonalEdgeStyle;rounded=0;orthogonalLoop=1;jettySize=auto;html=1;exitX=1;exitY=0.5;exitDx=0;exitDy=0;" parent="1" source="E5Ex_lbN0JhBKBRKAw5k-15" target="E5Ex_lbN0JhBKBRKAw5k-16" edge="1">
          <mxGeometry relative="1" as="geometry" />
        </mxCell>
        <mxCell id="E5Ex_lbN0JhBKBRKAw5k-15" value="Get Water&lt;br&gt;Level From&lt;br&gt;Sensor" style="whiteSpace=wrap;html=1;aspect=fixed;" parent="1" vertex="1">
          <mxGeometry x="400" y="640" width="80" height="80" as="geometry" />
        </mxCell>
        <mxCell id="E5Ex_lbN0JhBKBRKAw5k-21" style="edgeStyle=orthogonalEdgeStyle;rounded=0;orthogonalLoop=1;jettySize=auto;html=1;exitX=1;exitY=0.5;exitDx=0;exitDy=0;entryX=0;entryY=0.5;entryDx=0;entryDy=0;" parent="1" source="E5Ex_lbN0JhBKBRKAw5k-16" target="E5Ex_lbN0JhBKBRKAw5k-18" edge="1">
          <mxGeometry relative="1" as="geometry" />
        </mxCell>
        <mxCell id="E5Ex_lbN0JhBKBRKAw5k-23" style="edgeStyle=orthogonalEdgeStyle;rounded=0;orthogonalLoop=1;jettySize=auto;html=1;exitX=0.5;exitY=1;exitDx=0;exitDy=0;entryX=0.5;entryY=0;entryDx=0;entryDy=0;" parent="1" source="E5Ex_lbN0JhBKBRKAw5k-16" target="E5Ex_lbN0JhBKBRKAw5k-22" edge="1">
          <mxGeometry relative="1" as="geometry" />
        </mxCell>
        <mxCell id="E5Ex_lbN0JhBKBRKAw5k-16" value="Calculate&lt;br&gt;Volume" style="whiteSpace=wrap;html=1;aspect=fixed;" parent="1" vertex="1">
          <mxGeometry x="520" y="640" width="80" height="80" as="geometry" />
        </mxCell>
        <mxCell id="E5Ex_lbN0JhBKBRKAw5k-18" value="Push&lt;br&gt;Information&lt;br&gt;to&lt;br&gt;Database" style="whiteSpace=wrap;html=1;aspect=fixed;" parent="1" vertex="1">
          <mxGeometry x="640" y="640" width="80" height="80" as="geometry" />
        </mxCell>
        <mxCell id="E5Ex_lbN0JhBKBRKAw5k-25" style="edgeStyle=orthogonalEdgeStyle;rounded=0;orthogonalLoop=1;jettySize=auto;html=1;exitX=0.5;exitY=1;exitDx=0;exitDy=0;entryX=0.5;entryY=0;entryDx=0;entryDy=0;" parent="1" source="E5Ex_lbN0JhBKBRKAw5k-22" target="E5Ex_lbN0JhBKBRKAw5k-24" edge="1">
          <mxGeometry relative="1" as="geometry" />
        </mxCell>
        <mxCell id="E5Ex_lbN0JhBKBRKAw5k-28" style="edgeStyle=orthogonalEdgeStyle;rounded=0;orthogonalLoop=1;jettySize=auto;html=1;exitX=1;exitY=0.5;exitDx=0;exitDy=0;entryX=0;entryY=0.5;entryDx=0;entryDy=0;" parent="1" source="E5Ex_lbN0JhBKBRKAw5k-22" target="E5Ex_lbN0JhBKBRKAw5k-26" edge="1">
          <mxGeometry relative="1" as="geometry" />
        </mxCell>
        <mxCell id="E5Ex_lbN0JhBKBRKAw5k-22" value="Volume&lt;br&gt;&amp;lt;=&lt;br&gt;Specified&lt;br&gt;Volume" style="rhombus;whiteSpace=wrap;html=1;" parent="1" vertex="1">
          <mxGeometry x="380" y="760" width="122.5" height="120" as="geometry" />
        </mxCell>
        <mxCell id="E5Ex_lbN0JhBKBRKAw5k-29" value="" style="edgeStyle=orthogonalEdgeStyle;rounded=0;orthogonalLoop=1;jettySize=auto;html=1;" parent="1" source="E5Ex_lbN0JhBKBRKAw5k-24" target="E5Ex_lbN0JhBKBRKAw5k-27" edge="1">
          <mxGeometry relative="1" as="geometry" />
        </mxCell>
        <mxCell id="E5Ex_lbN0JhBKBRKAw5k-39" style="edgeStyle=orthogonalEdgeStyle;rounded=0;orthogonalLoop=1;jettySize=auto;html=1;exitX=0;exitY=0.5;exitDx=0;exitDy=0;entryX=0;entryY=0.5;entryDx=0;entryDy=0;" parent="1" source="E5Ex_lbN0JhBKBRKAw5k-24" target="E5Ex_lbN0JhBKBRKAw5k-22" edge="1">
          <mxGeometry relative="1" as="geometry" />
        </mxCell>
        <mxCell id="E5Ex_lbN0JhBKBRKAw5k-24" value="Volume&lt;br&gt;&amp;gt;=&lt;br&gt;Specified&lt;br&gt;Volume" style="rhombus;whiteSpace=wrap;html=1;" parent="1" vertex="1">
          <mxGeometry x="380" y="918.76" width="120.63" height="121.25" as="geometry" />
        </mxCell>
        <mxCell id="E5Ex_lbN0JhBKBRKAw5k-32" style="edgeStyle=orthogonalEdgeStyle;rounded=0;orthogonalLoop=1;jettySize=auto;html=1;exitX=1;exitY=0.5;exitDx=0;exitDy=0;entryX=0;entryY=0.5;entryDx=0;entryDy=0;" parent="1" source="E5Ex_lbN0JhBKBRKAw5k-26" target="E5Ex_lbN0JhBKBRKAw5k-30" edge="1">
          <mxGeometry relative="1" as="geometry" />
        </mxCell>
        <mxCell id="E5Ex_lbN0JhBKBRKAw5k-26" value="Open Pump" style="rounded=0;whiteSpace=wrap;html=1;" parent="1" vertex="1">
          <mxGeometry x="560" y="800" width="120" height="40" as="geometry" />
        </mxCell>
        <mxCell id="E5Ex_lbN0JhBKBRKAw5k-35" style="edgeStyle=orthogonalEdgeStyle;rounded=0;orthogonalLoop=1;jettySize=auto;html=1;exitX=1;exitY=0.5;exitDx=0;exitDy=0;entryX=0;entryY=0.5;entryDx=0;entryDy=0;" parent="1" source="E5Ex_lbN0JhBKBRKAw5k-27" target="E5Ex_lbN0JhBKBRKAw5k-30" edge="1">
          <mxGeometry relative="1" as="geometry" />
        </mxCell>
        <mxCell id="E5Ex_lbN0JhBKBRKAw5k-27" value="Close Pump" style="rounded=0;whiteSpace=wrap;html=1;" parent="1" vertex="1">
          <mxGeometry x="560" y="959.38" width="120" height="40" as="geometry" />
        </mxCell>
        <mxCell id="E5Ex_lbN0JhBKBRKAw5k-31" style="edgeStyle=orthogonalEdgeStyle;rounded=0;orthogonalLoop=1;jettySize=auto;html=1;entryX=1;entryY=0.5;entryDx=0;entryDy=0;" parent="1" source="E5Ex_lbN0JhBKBRKAw5k-30" target="E5Ex_lbN0JhBKBRKAw5k-18" edge="1">
          <mxGeometry relative="1" as="geometry" />
        </mxCell>
        <mxCell id="E5Ex_lbN0JhBKBRKAw5k-30" value="Check Pump State" style="rounded=0;whiteSpace=wrap;html=1;" parent="1" vertex="1">
          <mxGeometry x="720" y="880" width="120" height="40" as="geometry" />
        </mxCell>
        <mxCell id="E5Ex_lbN0JhBKBRKAw5k-36" value="Yes" style="text;html=1;strokeColor=none;fillColor=none;align=center;verticalAlign=middle;whiteSpace=wrap;rounded=0;" parent="1" vertex="1">
          <mxGeometry x="280" y="170" width="30" height="20" as="geometry" />
        </mxCell>
        <mxCell id="E5Ex_lbN0JhBKBRKAw5k-37" value="Yes" style="text;html=1;strokeColor=none;fillColor=none;align=center;verticalAlign=middle;whiteSpace=wrap;rounded=0;" parent="1" vertex="1">
          <mxGeometry x="510" y="800" width="30" height="20" as="geometry" />
        </mxCell>
        <mxCell id="E5Ex_lbN0JhBKBRKAw5k-38" value="Yes" style="text;html=1;strokeColor=none;fillColor=none;align=center;verticalAlign=middle;whiteSpace=wrap;rounded=0;" parent="1" vertex="1">
          <mxGeometry x="510" y="959.38" width="30" height="20" as="geometry" />
        </mxCell>
        <mxCell id="E5Ex_lbN0JhBKBRKAw5k-40" value="Yes" style="text;html=1;strokeColor=none;fillColor=none;align=center;verticalAlign=middle;whiteSpace=wrap;rounded=0;" parent="1" vertex="1">
          <mxGeometry x="130" y="610" width="30" height="20" as="geometry" />
        </mxCell>
        <mxCell id="E5Ex_lbN0JhBKBRKAw5k-41" value="No" style="text;html=1;strokeColor=none;fillColor=none;align=center;verticalAlign=middle;whiteSpace=wrap;rounded=0;" parent="1" vertex="1">
          <mxGeometry x="340" y="890" width="20" height="20" as="geometry" />
        </mxCell>
        <mxCell id="E5Ex_lbN0JhBKBRKAw5k-44" value="No" style="text;html=1;strokeColor=none;fillColor=none;align=center;verticalAlign=middle;whiteSpace=wrap;rounded=0;" parent="1" vertex="1">
          <mxGeometry x="440" y="890" width="20" height="20" as="geometry" />
        </mxCell>
        <mxCell id="E5Ex_lbN0JhBKBRKAw5k-45" value="No" style="text;html=1;strokeColor=none;fillColor=none;align=center;verticalAlign=middle;whiteSpace=wrap;rounded=0;" parent="1" vertex="1">
          <mxGeometry x="400" y="500" width="20" height="20" as="geometry" />
        </mxCell>
        <mxCell id="E5Ex_lbN0JhBKBRKAw5k-46" value="No" style="text;html=1;strokeColor=none;fillColor=none;align=center;verticalAlign=middle;whiteSpace=wrap;rounded=0;" parent="1" vertex="1">
          <mxGeometry x="330" y="100" width="20" height="20" as="geometry" />
        </mxCell>
        <mxCell id="fYrPf92ZrXlY5Qa0vSuc-17" style="edgeStyle=orthogonalEdgeStyle;rounded=0;orthogonalLoop=1;jettySize=auto;html=1;exitX=0.5;exitY=1;exitDx=0;exitDy=0;entryX=0.5;entryY=0;entryDx=0;entryDy=0;" edge="1" parent="1" source="fYrPf92ZrXlY5Qa0vSuc-14" target="fYrPf92ZrXlY5Qa0vSuc-15">
          <mxGeometry relative="1" as="geometry" />
        </mxCell>
        <mxCell id="fYrPf92ZrXlY5Qa0vSuc-14" value="Connect&lt;br&gt;Database" style="rounded=0;whiteSpace=wrap;html=1;" vertex="1" parent="1">
          <mxGeometry x="240" y="200" width="80" height="40" as="geometry" />
        </mxCell>
        <mxCell id="fYrPf92ZrXlY5Qa0vSuc-18" style="edgeStyle=orthogonalEdgeStyle;rounded=0;orthogonalLoop=1;jettySize=auto;html=1;exitX=0.5;exitY=1;exitDx=0;exitDy=0;entryX=0.5;entryY=0;entryDx=0;entryDy=0;" edge="1" parent="1" source="fYrPf92ZrXlY5Qa0vSuc-15" target="E5Ex_lbN0JhBKBRKAw5k-6">
          <mxGeometry relative="1" as="geometry" />
        </mxCell>
        <mxCell id="fYrPf92ZrXlY5Qa0vSuc-20" style="edgeStyle=orthogonalEdgeStyle;rounded=0;orthogonalLoop=1;jettySize=auto;html=1;exitX=1;exitY=0.5;exitDx=0;exitDy=0;" edge="1" parent="1" source="fYrPf92ZrXlY5Qa0vSuc-15">
          <mxGeometry relative="1" as="geometry">
            <mxPoint x="320.28571428571433" y="220" as="targetPoint" />
            <Array as="points">
              <mxPoint x="400" y="320" />
              <mxPoint x="400" y="220" />
            </Array>
          </mxGeometry>
        </mxCell>
        <mxCell id="fYrPf92ZrXlY5Qa0vSuc-15" value="Connected?" style="rhombus;whiteSpace=wrap;html=1;" vertex="1" parent="1">
          <mxGeometry x="240" y="280" width="80" height="80" as="geometry" />
        </mxCell>
        <mxCell id="fYrPf92ZrXlY5Qa0vSuc-19" value="Yes" style="text;html=1;strokeColor=none;fillColor=none;align=center;verticalAlign=middle;whiteSpace=wrap;rounded=0;" vertex="1" parent="1">
          <mxGeometry x="280" y="370" width="30" height="20" as="geometry" />
        </mxCell>
        <mxCell id="fYrPf92ZrXlY5Qa0vSuc-21" value="No" style="text;html=1;strokeColor=none;fillColor=none;align=center;verticalAlign=middle;whiteSpace=wrap;rounded=0;" vertex="1" parent="1">
          <mxGeometry x="400" y="260" width="20" height="20" as="geometry" />
        </mxCell>
      </root>
    </mxGraphModel>
  </diagram>
</mxfile>
